<svg width="92" height="84" viewBox="0 0 92 84" fill="none" xmlns="http://www.w3.org/2000/svg">
<path d="M46.0193 26.9278L39.842 33.1051L41.2494 34.5125L46.0193 29.7426L50.7892 34.5125L52.1966 33.1051L46.0193 26.9278ZM46.0193 32.5506L39.842 38.7278L41.2494 40.1353L46.0193 35.3654L50.7892 40.1353L52.1966 38.7278L46.0193 32.5506Z" fill="#1F19FB"/>
<g clip-path="url(#clip0_232_2)">
<path d="M53.3542 8.03662C54.8924 8.03662 56.1393 6.78966 56.1393 5.25146H57.4248C57.4248 6.78966 58.6717 8.03662 60.2099 8.03662V9.32208C58.6717 9.32208 57.4248 10.569 57.4248 12.1072H56.1393C56.1393 10.569 54.8924 9.32208 53.3542 9.32208V8.03662ZM38.5 15.5351C42.2863 15.5351 45.3558 12.4657 45.3558 8.67935H47.641C47.641 12.4657 50.7105 15.5351 54.4968 15.5351V17.8204C50.7105 17.8204 47.641 20.8898 47.641 24.6761H45.3558C45.3558 20.8898 42.2863 17.8204 38.5 17.8204V15.5351ZM42.9288 16.6777C44.427 17.5091 45.667 18.7491 46.4984 20.2473C47.3297 18.7491 48.5698 17.5091 50.068 16.6777C48.5698 15.8464 47.3297 14.6064 46.4984 13.1082C45.667 14.6064 44.427 15.8464 42.9288 16.6777Z" fill="#2822FF"/>
</g>
<path d="M5.34619 78.192C4.74885 78.192 4.11419 78.112 3.44219 77.952C2.77019 77.792 2.13552 77.5733 1.53819 77.296V75.248C2.92485 75.9947 4.16219 76.368 5.25019 76.368C5.79419 76.368 6.23152 76.2507 6.56219 76.016C6.90352 75.7813 7.07419 75.4507 7.07419 75.024C7.07419 74.7253 6.97819 74.4747 6.78619 74.272C6.60485 74.0587 6.37552 73.888 6.09819 73.76C5.82085 73.6213 5.42619 73.456 4.91419 73.264C4.22085 73.008 3.65552 72.7627 3.21819 72.528C2.78085 72.2933 2.40752 71.9627 2.09819 71.536C1.78885 71.0987 1.63419 70.5387 1.63419 69.856C1.63419 68.8533 1.98085 68.0747 2.67419 67.52C3.36752 66.9547 4.31685 66.672 5.52219 66.672C6.08752 66.672 6.64219 66.736 7.18619 66.864C7.73019 66.9813 8.23152 67.1573 8.69019 67.392V69.392C7.61285 68.7947 6.57285 68.496 5.57019 68.496C5.01552 68.496 4.57819 68.5973 4.25819 68.8C3.94885 68.992 3.79419 69.2693 3.79419 69.632C3.79419 69.9947 3.95419 70.2827 4.27419 70.496C4.60485 70.6987 5.11152 70.9227 5.79419 71.168C6.50885 71.4347 7.09552 71.6907 7.55419 71.936C8.01285 72.1813 8.40752 72.5387 8.73819 73.008C9.07952 73.4667 9.26085 74.064 9.28219 74.8C9.28219 75.856 8.92485 76.688 8.21019 77.296C7.49552 77.8933 6.54085 78.192 5.34619 78.192ZM15.5966 78.192C14.7539 78.192 14.0126 78.016 13.3726 77.664C12.7326 77.3013 12.2366 76.7893 11.8846 76.128C11.5432 75.4667 11.3726 74.6987 11.3726 73.824C11.3726 72.9493 11.5432 72.1813 11.8846 71.52C12.2366 70.8587 12.7326 70.352 13.3726 70C14.0126 69.6373 14.7539 69.456 15.5966 69.456C16.4392 69.456 17.1806 69.6373 17.8206 70C18.4606 70.352 18.9512 70.8587 19.2926 71.52C19.6446 72.1813 19.8206 72.9493 19.8206 73.824C19.8206 74.6987 19.6446 75.4667 19.2926 76.128C18.9512 76.7893 18.4606 77.3013 17.8206 77.664C17.1806 78.016 16.4392 78.192 15.5966 78.192ZM15.5966 76.448C16.2259 76.448 16.7166 76.224 17.0686 75.776C17.4206 75.3173 17.5966 74.6667 17.5966 73.824C17.5966 72.9707 17.4206 72.32 17.0686 71.872C16.7166 71.424 16.2259 71.2 15.5966 71.2C14.9672 71.2 14.4766 71.424 14.1246 71.872C13.7726 72.32 13.5966 72.9707 13.5966 73.824C13.5966 74.6667 13.7726 75.3173 14.1246 75.776C14.4766 76.224 14.9672 76.448 15.5966 76.448ZM25.1909 74.496L24.2309 75.552V78H22.1189V65.936H24.2309V73.008L27.1429 69.648H29.5429L26.5029 73.024L29.7349 78H27.3189L25.1909 74.496ZM37.1602 78L36.8562 76.912C36.3122 77.392 35.8322 77.728 35.4162 77.92C35.0109 78.1013 34.5469 78.192 34.0242 78.192C33.5229 78.192 33.0642 78.0747 32.6482 77.84C32.2429 77.6053 31.9229 77.2853 31.6882 76.88C31.4642 76.464 31.3522 76 31.3522 75.488V69.648H33.4642V74.288C33.4642 74.96 33.5709 75.4667 33.7842 75.808C33.9975 76.1493 34.3069 76.32 34.7122 76.32C35.0535 76.32 35.3735 76.2453 35.6722 76.096C35.9709 75.9467 36.2909 75.7067 36.6322 75.376V69.648H38.7442V76.144L39.0962 78H37.1602ZM44.0826 78.192C43.5279 78.192 42.9839 78.1173 42.4506 77.968C41.9172 77.808 41.4159 77.584 40.9466 77.296V75.296C41.4586 75.68 41.9439 75.9627 42.4026 76.144C42.8612 76.3253 43.3572 76.416 43.8906 76.416C44.4346 76.416 44.8346 76.3467 45.0906 76.208C45.3572 76.0693 45.4906 75.856 45.4906 75.568C45.4906 75.2907 45.3626 75.088 45.1066 74.96C44.8612 74.8213 44.4666 74.688 43.9226 74.56C43.3252 74.4107 42.8399 74.2613 42.4666 74.112C42.0932 73.952 41.7679 73.696 41.4906 73.344C41.2239 72.992 41.0906 72.5173 41.0906 71.92C41.0906 71.1733 41.3946 70.576 42.0026 70.128C42.6212 69.68 43.4479 69.456 44.4826 69.456C44.9839 69.456 45.4479 69.5147 45.8746 69.632C46.3012 69.7387 46.7386 69.92 47.1866 70.176V72.128C46.7279 71.808 46.3012 71.5787 45.9066 71.44C45.5119 71.3013 45.0906 71.232 44.6426 71.232C44.1519 71.232 43.7732 71.296 43.5066 71.424C43.2399 71.5413 43.1066 71.7173 43.1066 71.952C43.1066 72.1867 43.2186 72.3627 43.4426 72.48C43.6772 72.5867 44.0452 72.6987 44.5466 72.816C45.1439 72.944 45.6399 73.0933 46.0346 73.264C46.4399 73.424 46.7866 73.6907 47.0746 74.064C47.3626 74.4267 47.5066 74.9333 47.5066 75.584C47.5066 76.0853 47.3626 76.5387 47.0746 76.944C46.7866 77.3387 46.3812 77.648 45.8586 77.872C45.3359 78.0853 44.7439 78.192 44.0826 78.192ZM57.0266 74.464H51.2186C51.3039 75.104 51.5386 75.5947 51.9226 75.936C52.3172 76.2773 52.8399 76.448 53.4906 76.448C53.9706 76.448 54.4879 76.3627 55.0426 76.192C55.6079 76.0107 56.1306 75.7653 56.6106 75.456H56.6746V77.168C56.2479 77.4987 55.7572 77.7547 55.2026 77.936C54.6586 78.1067 54.0826 78.192 53.4746 78.192C52.5999 78.192 51.8372 78.016 51.1866 77.664C50.5359 77.312 50.0346 76.8053 49.6826 76.144C49.3306 75.4827 49.1546 74.7093 49.1546 73.824C49.1546 72.96 49.3199 72.1973 49.6506 71.536C49.9919 70.8747 50.4666 70.3627 51.0746 70C51.6826 69.6373 52.3866 69.456 53.1866 69.456C53.9652 69.456 54.6426 69.632 55.2186 69.984C55.8052 70.336 56.2532 70.8427 56.5626 71.504C56.8719 72.1653 57.0266 72.9387 57.0266 73.824V74.464ZM53.1866 71.152C52.6852 71.152 52.2639 71.3173 51.9226 71.648C51.5919 71.9787 51.3679 72.4373 51.2506 73.024H54.8506C54.7652 72.416 54.5839 71.952 54.3066 71.632C54.0292 71.312 53.6559 71.152 53.1866 71.152ZM62.3003 74.496L61.3403 75.552V78H59.2283V65.936H61.3403V73.008L64.2523 69.648H66.6523L63.6123 73.024L66.8443 78H64.4283L62.3003 74.496ZM69.3416 68.4C68.9789 68.4 68.6696 68.2773 68.4136 68.032C68.1576 67.7867 68.0296 67.4667 68.0296 67.072C68.0296 66.6773 68.1576 66.3573 68.4136 66.112C68.6696 65.8667 68.9789 65.744 69.3416 65.744C69.7042 65.744 70.0136 65.8667 70.2696 66.112C70.5256 66.3573 70.6536 66.6773 70.6536 67.072C70.6536 67.4667 70.5256 67.7867 70.2696 68.032C70.0136 68.2773 69.7042 68.4 69.3416 68.4ZM70.3976 69.648V78H68.2856V69.664L70.3976 69.648ZM76.8659 72.832V74.528H72.7059V72.832H76.8659ZM82.4722 74.496L81.5122 75.552V78H79.4002V65.936H81.5122V73.008L84.4242 69.648H86.8242L83.7842 73.024L87.0162 78H84.6002L82.4722 74.496ZM89.5134 68.4C89.1508 68.4 88.8414 68.2773 88.5854 68.032C88.3294 67.7867 88.2014 67.4667 88.2014 67.072C88.2014 66.6773 88.3294 66.3573 88.5854 66.112C88.8414 65.8667 89.1508 65.744 89.5134 65.744C89.8761 65.744 90.1854 65.8667 90.4414 66.112C90.6974 66.3573 90.8254 66.6773 90.8254 67.072C90.8254 67.4667 90.6974 67.7867 90.4414 68.032C90.1854 68.2773 89.8761 68.4 89.5134 68.4ZM90.5694 69.648V78H88.4574V69.664L90.5694 69.648Z" fill="#02004A"/>
<path d="M7.648 46.984V55.816H4.84V49.648H2.032V46.984H7.648ZM7.648 54.568C8.608 56.152 10.432 56.848 12.928 56.944C15.736 57.064 21.184 56.992 24.424 56.728C24.112 57.4 23.632 58.792 23.512 59.656C20.608 59.8 15.76 59.848 12.88 59.728C9.928 59.608 7.936 58.912 6.376 57.04C5.32 57.976 4.24 58.888 2.944 59.944L1.528 56.944C2.608 56.272 3.904 55.432 5.008 54.568H7.648ZM2.08 39.904L4.216 38.176C5.656 39.184 7.408 40.696 8.248 41.824L5.944 43.72C5.224 42.592 3.496 40.984 2.08 39.904ZM12.112 45.616V47.704H20.104V45.616H12.112ZM9.448 43.408H22.912V49.888H9.448V43.408ZM8.704 39.712H23.728V42.112H8.704V39.712ZM14.632 37.648H17.416V56.296H14.632V37.648ZM13.864 49.144L15.952 49.888C14.608 52.36 12.28 54.688 9.856 55.912C9.472 55.24 8.632 54.232 8.032 53.728C10.312 52.816 12.664 50.992 13.864 49.144ZM17.752 49.12C19.144 50.896 21.76 52.672 24.088 53.584C23.44 54.136 22.576 55.144 22.144 55.84C19.816 54.616 17.272 52.24 15.784 49.96L17.752 49.12ZM38.488 53.2H54.136V55.432H38.488V53.2ZM39.112 49.336H55.216V51.712H39.112V49.336ZM35.536 57.064H56.776V59.536H35.536V57.064ZM44.704 47.872H47.704V58.792H44.704V47.872ZM40.672 43.96V45.232H51.328V43.96H40.672ZM40.672 40.648V41.92H51.328V40.648H40.672ZM37.864 38.464H54.328V47.44H37.864V38.464ZM39.088 47.2L41.92 48.016C40.84 50.344 39.04 52.672 37.384 54.136C36.832 53.608 35.656 52.744 34.984 52.336C36.64 51.088 38.224 49.144 39.088 47.2ZM75.592 49.864H90.304V52.096H75.592V49.864ZM77.536 54.424L79 52.696C80.128 53.392 81.64 54.472 82.36 55.216L80.824 57.16C80.152 56.368 78.688 55.192 77.536 54.424ZM85.36 48.976L86.752 47.704C87.52 48.184 88.48 48.904 88.936 49.432L87.448 50.8C87.016 50.272 86.104 49.48 85.36 48.976ZM77.176 51.016H79.72C79.432 54.688 78.76 58.024 75.76 60.136C75.424 59.536 74.728 58.648 74.128 58.216C76.576 56.584 77.008 53.824 77.176 51.016ZM81.304 37.648H83.8C83.584 48.616 85.192 57.76 88.072 57.76C88.672 57.76 88.888 57.328 89.008 55.408C89.512 55.96 90.304 56.44 90.88 56.704C90.448 59.464 89.752 60.184 87.88 60.184C82.6 60.16 81.304 49.552 81.304 37.648ZM86.8 52.048L89.176 52.936C87.52 56.296 84.568 58.72 80.944 60.136C80.632 59.632 79.912 58.768 79.432 58.288C82.864 57.088 85.48 54.88 86.8 52.048ZM83.44 42.136L84.496 40.576C85.504 41.296 86.704 42.376 87.256 43.096L86.152 44.896C85.6 44.104 84.4 42.952 83.44 42.136ZM87.928 44.92L89.536 44.32C90.112 45.472 90.664 46.96 90.808 47.896L89.08 48.616C88.936 47.656 88.456 46.096 87.928 44.92ZM83.872 46.216C85.312 46.12 87.208 45.976 89.224 45.808L89.272 47.632C87.52 47.872 85.816 48.088 84.28 48.28L83.872 46.216ZM86.08 37.768L88.24 38.56C87.472 39.928 86.656 41.44 85.984 42.424L84.448 41.728C85.024 40.648 85.72 38.968 86.08 37.768ZM88.096 40.336L90.088 41.296C88.792 43.312 87.16 45.76 85.84 47.296L84.352 46.456C85.624 44.848 87.208 42.232 88.096 40.336ZM75.04 42.136L76.12 40.576C77.104 41.296 78.328 42.376 78.856 43.096L77.752 44.896C77.224 44.104 76.024 42.952 75.04 42.136ZM79.144 45.208L80.752 44.68C81.28 45.832 81.736 47.344 81.832 48.28L80.104 48.928C80.008 47.944 79.6 46.408 79.144 45.208ZM75.208 46.6C76.672 46.504 78.592 46.36 80.632 46.192L80.68 48.136C78.904 48.352 77.152 48.544 75.592 48.712L75.208 46.6ZM77.704 37.768L79.84 38.584C79.048 39.928 78.256 41.512 77.608 42.496L76.072 41.824C76.624 40.72 77.32 38.968 77.704 37.768ZM79.72 40.336L81.688 41.296C80.344 43.432 78.64 46 77.248 47.608L75.76 46.792C77.104 45.112 78.76 42.352 79.72 40.336ZM68.296 42.592H75.616V45.232H68.296V42.592ZM70.864 37.624H73.432V60.16H70.864V37.624ZM70.816 44.416L72.304 44.92C71.728 48.688 70.504 53.32 68.944 55.768C68.704 55.048 68.128 53.968 67.72 53.32C69.112 51.256 70.312 47.464 70.816 44.416ZM73.312 46.024C73.792 46.672 75.64 49.744 76 50.44L74.632 52.432C74.152 51.016 72.856 48.208 72.256 47.08L73.312 46.024Z" fill="black"/>
<defs>
<clipPath id="clip0_232_2">
<rect width="27.4231" height="27.4231" fill="white" transform="translate(38.5)"/>
</clipPath>
</defs>
</svg>
